# xmcd
#
# Track frame offsets:
#	150
#	1263
#	19108
#	34191
#	48091
#	62532
#	74936
#	90866
#	106507
#	117484
#	133409
#	151892
#	166699
#	182685
#	196727
#	212127
#	224500
#	242325
#	256033
#	272001
#	286585
#	298356
#	315568
#	328060
#	340307
#	356579
#
# Disc length: 4767 seconds
#
# Revision: 1
# Processed by: cddbd v1.5.1PL2 Copyright (c) Steve Scherf et al.
# Submitted via: audiograbber 1.83.01
#
DISCID=77129d1a
DTITLE=Various Artist - RnB Superclub
DYEAR=2005
DGENRE=Hip Hop
TTITLE0=Intro - Mike Scott
TTITLE1=Regulate - Warren G feat. Nate Dogg
TTITLE2=I Got 5 On It - Luniz
TTITLE3=Hey Mr. DJ - Zhane
TTITLE4=Around The Way Girl - LL Cool J
TTITLE5=Return of the Mack - Mark Morrison
TTITLE6=Here Comes The Hotstepper - Ini Kamoze
TTITLE7=Peopl Everyday - Arrested Developmant
TTITLE8=Red Red Wine - UB40
TTITLE9=Sexual Healing - Marvin Gaye
TTITLE10=Aint Nobody - Rufus and Chaka Khan
TTITLE11=U Blow My Mind - Blackstreet
TTITLE12=Rumpshaker - Wrecks-N-Effect
TTITLE13=Check Yo Self - Ice Cube feat. Das EFX
TTITLE14=This Is How We Do It - Montell Jordan
TTITLE15=Aint To Proud To Beg - TLC
TTITLE16=Do You Wanna Get Funky - C and C Music Factory
TTITLE17=Jump Around - House of Pain
TTITLE18=Poison - Bell Biv DeVoe
TTITLE19=Mowtownphilly - Boyz II Men
TTITLE20=Word Up - Cameo
TTITLE21=Ice Ice Baby - Vanilla Ice
TTITLE22=U Cant Touch This - MC Hammer
TTITLE23=Bring It On - Kulcha
TTITLE24=Twisted - Keith Sweat
TTITLE25=Outro - Mike Scott
EXTD=
EXTT0=
EXTT1=
EXTT2=
EXTT3=
EXTT4=
EXTT5=
EXTT6=
EXTT7=
EXTT8=
EXTT9=
EXTT10=
EXTT11=
EXTT12=
EXTT13=
EXTT14=
EXTT15=
EXTT16=
EXTT17=
EXTT18=
EXTT19=
EXTT20=
EXTT21=
EXTT22=
EXTT23=
EXTT24=
EXTT25=
PLAYORDER=
